<svg width="21" height="20" viewBox="0 0 21 20" fill="none" xmlns="http://www.w3.org/2000/svg">
<path d="M14.6667 8.33329H16.3334C18.0001 8.33329 18.8334 7.49996 18.8334 5.83329V4.16663C18.8334 2.49996 18.0001 1.66663 16.3334 1.66663H14.6667C13.0001 1.66663 12.1667 2.49996 12.1667 4.16663V5.83329C12.1667 7.49996 13.0001 8.33329 14.6667 8.33329Z" stroke="url(#paint0_linear_3500_45)" stroke-width="1.3" stroke-miterlimit="10" stroke-linecap="round" stroke-linejoin="round"/>
<path d="M4.66675 18.3333H6.33341C8.00008 18.3333 8.83341 17.5 8.83341 15.8333V14.1666C8.83341 12.5 8.00008 11.6666 6.33341 11.6666H4.66675C3.00008 11.6666 2.16675 12.5 2.16675 14.1666V15.8333C2.16675 17.5 3.00008 18.3333 4.66675 18.3333Z" stroke="url(#paint1_linear_3500_45)" stroke-width="1.3" stroke-miterlimit="10" stroke-linecap="round" stroke-linejoin="round"/>
<path d="M5.50008 8.33329C7.34103 8.33329 8.83341 6.84091 8.83341 4.99996C8.83341 3.15901 7.34103 1.66663 5.50008 1.66663C3.65913 1.66663 2.16675 3.15901 2.16675 4.99996C2.16675 6.84091 3.65913 8.33329 5.50008 8.33329Z" stroke="url(#paint2_linear_3500_45)" stroke-width="1.3" stroke-miterlimit="10" stroke-linecap="round" stroke-linejoin="round"/>
<path d="M15.5001 18.3333C17.341 18.3333 18.8334 16.8409 18.8334 15C18.8334 13.159 17.341 11.6666 15.5001 11.6666C13.6591 11.6666 12.1667 13.159 12.1667 15C12.1667 16.8409 13.6591 18.3333 15.5001 18.3333Z" stroke="url(#paint3_linear_3500_45)" stroke-width="1.5" stroke-miterlimit="10" stroke-linecap="round" stroke-linejoin="round"/>
<defs>
<linearGradient id="paint0_linear_3500_45" x1="18.8334" y1="1.66663" x2="17.1816" y2="9.40392" gradientUnits="userSpaceOnUse">
<stop stop-color="#47BFDF"/>
<stop offset="1" stop-color="#4A91FF"/>
</linearGradient>
<linearGradient id="paint1_linear_3500_45" x1="8.83341" y1="11.6666" x2="7.18155" y2="19.4039" gradientUnits="userSpaceOnUse">
<stop stop-color="#47BFDF"/>
<stop offset="1" stop-color="#4A91FF"/>
</linearGradient>
<linearGradient id="paint2_linear_3500_45" x1="8.83341" y1="1.66663" x2="7.18155" y2="9.40392" gradientUnits="userSpaceOnUse">
<stop stop-color="#47BFDF"/>
<stop offset="1" stop-color="#4A91FF"/>
</linearGradient>
<linearGradient id="paint3_linear_3500_45" x1="18.8334" y1="11.6666" x2="17.1816" y2="19.4039" gradientUnits="userSpaceOnUse">
<stop stop-color="#47BFDF"/>
<stop offset="1" stop-color="#4A91FF"/>
</linearGradient>
</defs>
</svg>
