<svg width="44" height="44" viewBox="0 0 44 44" fill="none" xmlns="http://www.w3.org/2000/svg">
<rect x="0.5" y="0.5" width="43" height="43" rx="21.5" fill="white"/>
<path d="M28.364 15.3638C29.6226 16.6447 30.4798 18.2768 30.8271 20.0536C31.1743 21.8304 30.9961 23.672 30.3149 25.3457C29.6337 27.0194 28.4802 28.4499 27.0001 29.4564C25.5201 30.4628 23.78 31 22 31C20.22 31 18.4799 30.4628 16.9999 29.4564C15.5198 28.4499 14.3663 27.0194 13.6851 25.3457C13.0039 23.672 12.8257 21.8304 13.1729 20.0536C13.5202 18.2768 14.3774 16.6448 15.636 15.3638" stroke="#FF6D6D" stroke-width="1.5" stroke-linecap="round"/>
<path d="M22 13V17.7275" stroke="#FF6D6D" stroke-width="1.5" stroke-linecap="round"/>
<rect x="0.5" y="0.5" width="43" height="43" rx="21.5" stroke="#E0E3E7"/>
</svg>
