<svg width="147" height="131" viewBox="0 0 147 131" fill="none" xmlns="http://www.w3.org/2000/svg">
<g opacity="0.67" filter="url(#filter0_f_964_267)">
<path d="M84.1832 47.653C90.5591 53.4072 105.522 59.5088 99.7673 65.8847C94.0131 72.2606 61.1235 90.4739 47.4292 83.4339C41.0533 77.6797 53.1415 59.152 58.8957 52.7761C64.6499 46.4002 77.8073 41.8988 84.1832 47.653Z" fill="url(#paint0_linear_964_267)" fill-opacity="0.3"/>
</g>
<g filter="url(#filter1_ii_964_267)">
<path fill-rule="evenodd" clip-rule="evenodd" d="M74.3163 72.5025V72.503H61.797C55.5656 72.503 50.5142 67.4515 50.5142 61.2202C50.5142 54.9889 55.5656 49.9374 61.797 49.9374H62.4152C64.6023 49.9374 66.6516 50.5274 68.4127 51.5569C70.702 44.7742 77.1165 39.8905 84.6716 39.8905H85.5217C94.5273 39.8905 101.828 47.1909 101.828 56.1965C101.828 65.202 94.5273 72.5025 85.5217 72.5025H74.3163Z" fill="white"/>
</g>
<path fill-rule="evenodd" clip-rule="evenodd" d="M83.9945 72C83.8771 72 83.782 72.0951 83.782 72.2125V72.879L83.2971 72.2666C83.2243 72.1746 83.0906 72.1591 82.9986 72.2319C82.9066 72.3048 82.8911 72.4384 82.9639 72.5304L83.782 73.5637V73.954L83.2971 73.3416C83.2243 73.2496 83.0906 73.234 82.9986 73.3069C82.9066 73.3798 82.8911 73.5134 82.9639 73.6054L83.782 74.6387V76.4737L82.4221 75.1137L82.2699 73.8047C82.2564 73.6881 82.1509 73.6046 82.0343 73.6181C81.9177 73.6317 81.8342 73.7372 81.8478 73.8537L81.9379 74.6296L81.6619 74.3536L81.5098 73.0445C81.4962 72.9279 81.3907 72.8444 81.2742 72.858C81.1576 72.8715 81.0741 72.977 81.0876 73.0936L81.1778 73.8695L80.7689 73.4606C80.6859 73.3776 80.5514 73.3776 80.4684 73.4606C80.3854 73.5436 80.3854 73.6781 80.4684 73.7611L80.8871 74.1798L80.0936 74.0876C79.977 74.0741 79.8715 74.1576 79.858 74.2742C79.8444 74.3907 79.928 74.4962 80.0445 74.5098L81.3712 74.664L81.6473 74.94L80.8537 74.8478C80.7372 74.8342 80.6317 74.9177 80.6181 75.0343C80.6046 75.1509 80.6881 75.2564 80.8047 75.2699L82.1314 75.4241L83.4893 76.782H81.5505L80.5172 75.9639C80.4252 75.8911 80.2916 75.9066 80.2187 75.9986C80.1459 76.0906 80.1614 76.2243 80.2534 76.2971L80.8658 76.782H80.4754L79.4422 75.9639C79.3502 75.8911 79.2165 75.9066 79.1437 75.9986C79.0708 76.0906 79.0864 76.2243 79.1784 76.2971L79.7908 76.782H79.2125C79.0951 76.782 79 76.8771 79 76.9945C79 77.1119 79.0951 77.207 79.2125 77.207H79.8047L79.1784 77.7029C79.0864 77.7757 79.0708 77.9094 79.1437 78.0014C79.2165 78.0934 79.3502 78.1089 79.4422 78.0361L80.4893 77.207H80.8797L80.2534 77.7029C80.1614 77.7757 80.1459 77.9094 80.2187 78.0014C80.2916 78.0934 80.4252 78.1089 80.5172 78.0361L81.5643 77.207H83.4847L82.1137 78.5779L80.8047 78.7301C80.6881 78.7436 80.6046 78.8491 80.6181 78.9657C80.6316 79.0823 80.7371 79.1658 80.8537 79.1522L81.6296 79.0621L81.3536 79.3381L80.0445 79.4902C79.9279 79.5038 79.8444 79.6093 79.858 79.7258C79.8715 79.8424 79.977 79.9259 80.0936 79.9124L80.8695 79.8222L80.4606 80.2311C80.3776 80.3141 80.3776 80.4487 80.4606 80.5317C80.5435 80.6146 80.6781 80.6146 80.7611 80.5317L81.1798 80.1129L81.0876 80.9064C81.0741 81.023 81.1576 81.1285 81.2742 81.142C81.3907 81.1556 81.4962 81.0721 81.5098 80.9555L81.6639 79.6288L81.94 79.3528L81.8478 80.1463C81.8342 80.2628 81.9177 80.3683 82.0343 80.3819C82.1509 80.3954 82.2564 80.3119 82.2699 80.1953L82.4241 78.8686L83.782 77.5107V79.4495L82.9639 80.4828C82.8911 80.5748 82.9066 80.7085 82.9986 80.7813C83.0906 80.8542 83.2243 80.8386 83.2971 80.7466L83.782 80.1342V80.5245L82.9639 81.5578C82.8911 81.6498 82.9066 81.7834 82.9986 81.8563C83.0906 81.9291 83.2243 81.9136 83.2971 81.8216L83.782 81.2092V81.7875C83.782 81.9049 83.8771 82 83.9945 82C84.1119 82 84.207 81.9049 84.207 81.7875V81.1953L84.7029 81.8216C84.7757 81.9136 84.9094 81.9291 85.0014 81.8563C85.0934 81.7834 85.1089 81.6498 85.0361 81.5578L84.207 80.5107V80.1203L84.7029 80.7466C84.7757 80.8386 84.9094 80.8542 85.0014 80.7813C85.0934 80.7085 85.1089 80.5748 85.0361 80.4828L84.207 79.4357V77.4997L85.5135 78.8063L85.6677 80.1329C85.6813 80.2495 85.7868 80.333 85.9033 80.3195C86.0199 80.3059 86.1034 80.2005 86.0899 80.0839L85.9977 79.2904L86.2737 79.5664L86.4279 80.8931C86.4414 81.0097 86.5469 81.0932 86.6635 81.0796C86.78 81.0661 86.8636 80.9606 86.85 80.844L86.7578 80.0505L87.2389 80.5316C87.3219 80.6146 87.4565 80.6146 87.5394 80.5316C87.6224 80.4487 87.6224 80.3141 87.5394 80.2311L87.0681 79.7598L87.8441 79.85C87.9606 79.8635 88.0661 79.78 88.0797 79.6634C88.0932 79.5469 88.0097 79.4414 87.8931 79.4278L86.584 79.2757L86.308 78.9997L87.0839 79.0899C87.2005 79.1034 87.306 79.0199 87.3195 78.9033C87.3331 78.7867 87.2496 78.6812 87.133 78.6677L85.8239 78.5156L84.5153 77.207H86.3474L87.3946 78.0361C87.4866 78.1089 87.6202 78.0934 87.6931 78.0014C87.7659 77.9094 87.7504 77.7757 87.6584 77.7029L87.0321 77.207H87.4225L88.4696 78.0361C88.5616 78.1089 88.6952 78.0934 88.7681 78.0014C88.8409 77.9094 88.8254 77.7757 88.7334 77.7029L88.1071 77.207H88.7875C88.9049 77.207 89 77.1119 89 76.9945C89 76.8771 88.9049 76.782 88.7875 76.782H88.121L88.7334 76.2971C88.8254 76.2243 88.8409 76.0906 88.7681 75.9986C88.6952 75.9066 88.5616 75.8911 88.4696 75.9639L87.4363 76.782H87.046L87.6584 76.2971C87.7504 76.2243 87.7659 76.0906 87.6931 75.9986C87.6202 75.9066 87.4866 75.8911 87.3946 75.9639L86.3613 76.782H84.5107L85.8063 75.4865L87.1329 75.3323C87.2495 75.3188 87.333 75.2133 87.3195 75.0967C87.306 74.9801 87.2005 74.8966 87.0839 74.9101L86.2904 75.0024L86.5664 74.7263L87.8931 74.5722C88.0097 74.5586 88.0932 74.4531 88.0796 74.3366C88.0661 74.22 87.9606 74.1365 87.844 74.15L87.0505 74.2422L87.5316 73.7611C87.6146 73.6781 87.6146 73.5436 87.5316 73.4606C87.4486 73.3776 87.3141 73.3776 87.2311 73.4606L86.7598 73.9318L86.85 73.156C86.8636 73.0394 86.78 72.9339 86.6635 72.9204C86.5469 72.9068 86.4414 72.9903 86.4279 73.1069L86.2757 74.416L85.9997 74.692L86.0899 73.9161C86.1034 73.7995 86.0199 73.694 85.9033 73.6805C85.7867 73.667 85.6813 73.7505 85.6677 73.867L85.5449 74.9234L84.8449 73.8469L85.0361 73.6054C85.1089 73.5134 85.0934 73.3798 85.0014 73.3069C84.9094 73.234 84.7757 73.2496 84.7029 73.3416L84.6004 73.471L84.461 73.2567L85.0361 72.5304C85.1089 72.4384 85.0934 72.3048 85.0014 72.2319C84.9094 72.1591 84.7757 72.1746 84.7029 72.2666L84.2166 72.8808L84.207 72.866V72.2125C84.207 72.0951 84.1119 72 83.9945 72ZM84.207 72.8674V72.866L83.782 72.2125L84.207 72.8674ZM84.2161 72.8814L84.207 72.8674V72.8929L84.2161 72.8814ZM84.4603 73.2577L84.461 73.2567L84.2166 72.8808L84.2161 72.8814L84.4603 73.2577ZM84.5995 73.4722L84.6004 73.471L84.8449 73.8469L84.8437 73.8484L84.5995 73.4722ZM85.5444 74.9282L85.5156 75.1761L84.207 76.4847V74.6525L84.8437 73.8484L85.5444 74.9282ZM85.5444 74.9282L85.5449 74.9234L85.6492 75.0837L85.6461 75.0849L85.5444 74.9282ZM84.5995 73.4722L84.207 73.9679V73.5775L84.4603 73.2577L84.5995 73.4722Z" fill="#D6E9FF"/>
<path fill-rule="evenodd" clip-rule="evenodd" d="M64.4962 70C64.414 70 64.3474 70.0666 64.3474 70.1487V70.6153L64.008 70.1866C63.957 70.1222 63.8634 70.1113 63.799 70.1623C63.7346 70.2133 63.7237 70.3069 63.7747 70.3713L64.3474 71.0946V71.3678L64.008 70.9391C63.957 70.8747 63.8634 70.8638 63.799 70.9148C63.7346 70.9658 63.7237 71.0594 63.7747 71.1238L64.3474 71.8471V73.1316L63.3954 72.1796L63.2889 71.2633C63.2795 71.1817 63.2056 71.1232 63.124 71.1327C63.0424 71.1422 62.984 71.216 62.9934 71.2976L63.0566 71.8407L62.8633 71.6475L62.7568 70.7312C62.7474 70.6496 62.6735 70.5911 62.5919 70.6006C62.5103 70.6101 62.4519 70.6839 62.4613 70.7655L62.5245 71.3086L62.2382 71.0224C62.1801 70.9643 62.086 70.9643 62.0279 71.0224C61.9698 71.0805 61.9698 71.1747 62.0279 71.2328L62.321 71.5259L61.7655 71.4613C61.6839 71.4519 61.6101 71.5103 61.6006 71.5919C61.5911 71.6735 61.6496 71.7474 61.7312 71.7568L62.6599 71.8648L62.8531 72.058L62.2976 71.9934C62.216 71.984 62.1422 72.0424 62.1327 72.124C62.1232 72.2056 62.1817 72.2795 62.2633 72.2889L63.192 72.3969L64.1425 73.3474H62.7853L62.062 72.7747C61.9976 72.7237 61.9041 72.7346 61.8531 72.799C61.8021 72.8634 61.813 72.957 61.8774 73.008L62.3061 73.3474H62.0328L61.3095 72.7747C61.2451 72.7237 61.1516 72.7346 61.1006 72.799C61.0496 72.8634 61.0605 72.957 61.1249 73.008L61.5536 73.3474H61.1487C61.0666 73.3474 61 73.414 61 73.4962C61 73.5783 61.0666 73.6449 61.1487 73.6449H61.5633L61.1249 73.992C61.0605 74.043 61.0496 74.1366 61.1006 74.201C61.1516 74.2654 61.2451 74.2763 61.3095 74.2253L62.0425 73.6449H62.3158L61.8774 73.992C61.813 74.043 61.8021 74.1366 61.8531 74.201C61.9041 74.2654 61.9976 74.2763 62.062 74.2253L62.795 73.6449H64.1393L63.1796 74.6046L62.2633 74.7111C62.1817 74.7205 62.1232 74.7944 62.1327 74.876C62.1422 74.9576 62.216 75.0161 62.2976 75.0066L62.8407 74.9434L62.6475 75.1367L61.7312 75.2432C61.6495 75.2526 61.5911 75.3265 61.6006 75.4081C61.61 75.4897 61.6839 75.5482 61.7655 75.5387L62.3086 75.4755L62.0224 75.7618C61.9643 75.8199 61.9643 75.9141 62.0224 75.9722C62.0805 76.0302 62.1747 76.0302 62.2328 75.9722L62.5259 75.679L62.4613 76.2345C62.4518 76.3161 62.5103 76.3899 62.5919 76.3994C62.6735 76.4089 62.7474 76.3504 62.7568 76.2688L62.8648 75.3402L63.058 75.1469L62.9934 75.7024C62.9839 75.784 63.0424 75.8578 63.124 75.8673C63.2056 75.8768 63.2795 75.8183 63.2889 75.7367L63.3969 74.808L64.3474 73.8575V75.2147L63.7747 75.938C63.7237 76.0024 63.7346 76.0959 63.799 76.1469C63.8634 76.1979 63.957 76.187 64.008 76.1226L64.3474 75.6939V75.9672L63.7747 76.6904C63.7237 76.7549 63.7346 76.8484 63.799 76.8994C63.8634 76.9504 63.957 76.9395 64.008 76.8751L64.3474 76.4464V76.8513C64.3474 76.9334 64.414 77 64.4962 77C64.5783 77 64.6449 76.9334 64.6449 76.8513V76.4367L64.992 76.8751C65.043 76.9395 65.1366 76.9504 65.201 76.8994C65.2654 76.8484 65.2763 76.7549 65.2253 76.6904L64.6449 75.9575V75.6842L64.992 76.1226C65.043 76.187 65.1366 76.1979 65.201 76.1469C65.2654 76.0959 65.2763 76.0024 65.2253 75.938L64.6449 75.205V73.8498L65.5595 74.7644L65.6674 75.6931C65.6769 75.7747 65.7507 75.8331 65.8323 75.8236C65.9139 75.8142 65.9724 75.7403 65.9629 75.6587L65.8984 75.1033L66.0916 75.2965L66.1995 76.2252C66.209 76.3068 66.2828 76.3652 66.3644 76.3557C66.446 76.3463 66.5045 76.2724 66.495 76.1908L66.4305 75.6354L66.7672 75.9722C66.8253 76.0302 66.9195 76.0302 66.9776 75.9722C67.0357 75.9141 67.0357 75.8199 66.9776 75.7618L66.6477 75.4319L67.1908 75.495C67.2725 75.5045 67.3463 75.446 67.3558 75.3644C67.3653 75.2828 67.3068 75.209 67.2252 75.1995L66.3088 75.093L66.1156 74.8998L66.6587 74.9629C66.7404 74.9724 66.8142 74.9139 66.8237 74.8323C66.8332 74.7507 66.7747 74.6769 66.6931 74.6674L65.7767 74.5609L64.8607 73.6449H66.1432L66.8762 74.2253C66.9406 74.2763 67.0342 74.2654 67.0852 74.201C67.1361 74.1366 67.1253 74.043 67.0609 73.992L66.6225 73.6449H66.8957L67.6287 74.2253C67.6931 74.2763 67.7867 74.2654 67.8377 74.201C67.8887 74.1366 67.8778 74.043 67.8134 73.992L67.375 73.6449H67.8513C67.9334 73.6449 68 73.5783 68 73.4962C68 73.414 67.9334 73.3474 67.8513 73.3474H67.3847L67.8134 73.008C67.8778 72.957 67.8887 72.8634 67.8377 72.799C67.7867 72.7346 67.6931 72.7237 67.6287 72.7747L66.9054 73.3474H66.6322L67.0609 73.008C67.1253 72.957 67.1361 72.8634 67.0852 72.799C67.0342 72.7346 66.9406 72.7237 66.8762 72.7747L66.1529 73.3474H64.8575L65.7644 72.4405L66.6931 72.3326C66.7747 72.3231 66.8331 72.2493 66.8236 72.1677C66.8142 72.0861 66.7403 72.0276 66.6587 72.0371L66.1033 72.1017L66.2965 71.9084L67.2252 71.8005C67.3068 71.791 67.3652 71.7172 67.3558 71.6356C67.3463 71.554 67.2724 71.4955 67.1908 71.505L66.6354 71.5696L66.9721 71.2328C67.0302 71.1747 67.0302 71.0805 66.9721 71.0224C66.9141 70.9643 66.8199 70.9643 66.7618 71.0224L66.4319 71.3523L66.495 70.8092C66.5045 70.7276 66.446 70.6537 66.3644 70.6443C66.2828 70.6348 66.209 70.6932 66.1995 70.7748L66.093 71.6912L65.8998 71.8844L65.9629 71.3413C65.9724 71.2597 65.9139 71.1858 65.8323 71.1764C65.7507 71.1669 65.6769 71.2253 65.6674 71.3069L65.5609 72.2233L64.6449 73.1393V71.8568L65.2253 71.1238C65.2763 71.0594 65.2654 70.9658 65.201 70.9148C65.1366 70.8638 65.043 70.8747 64.992 70.9391L64.6449 71.3775V71.1043L65.2253 70.3713C65.2763 70.3069 65.2654 70.2133 65.201 70.1623C65.1366 70.1113 65.043 70.1222 64.992 70.1866L64.6449 70.625V70.1488C64.6449 70.0666 64.5783 70 64.4962 70Z" fill="#D6E9FF"/>
<path fill-rule="evenodd" clip-rule="evenodd" d="M71.9956 72C71.9017 72 71.8256 72.0761 71.8256 72.17V72.7911L71.4349 72.236C71.3782 72.1553 71.2725 72.1432 71.1989 72.2087C71.1253 72.2743 71.1116 72.3928 71.1683 72.4734L71.8256 73.4073V73.7586L71.4349 73.2035C71.3782 73.1228 71.2725 73.1106 71.1989 73.1762C71.1253 73.2418 71.1116 73.3603 71.1683 73.4409L71.8256 74.3748V76.0263L70.7376 74.8024L70.6159 73.6242C70.6051 73.5193 70.5207 73.4441 70.4275 73.4563C70.3342 73.4685 70.2674 73.5634 70.2782 73.6684L70.3504 74.3667L70.1295 74.1182L70.0078 72.9401C69.997 72.8352 69.9126 72.76 69.8193 72.7722C69.7261 72.7844 69.6593 72.8793 69.6701 72.9842L69.7422 73.6825L69.4151 73.3145C69.3487 73.2398 69.2411 73.2398 69.1747 73.3145C69.1083 73.3892 69.1083 73.5103 69.1747 73.585L69.5097 73.9619L68.8749 73.8789C68.7816 73.8667 68.6972 73.9418 68.6864 74.0468C68.6756 74.1517 68.7424 74.2466 68.8356 74.2588L69.897 74.3976L70.1178 74.646L69.483 74.563C69.3897 74.5508 69.3053 74.626 69.2945 74.7309C69.2837 74.8358 69.3505 74.9307 69.4438 74.9429L70.5051 75.0817L71.5914 76.3038H70.0404L69.2174 75.5708C69.1418 75.5034 69.0332 75.5159 68.975 75.5987C68.9167 75.6816 68.9307 75.8033 69.0063 75.8706L69.4926 76.3038H69.1804L68.3574 75.5708C68.2818 75.5034 68.1732 75.5159 68.115 75.5987C68.0567 75.6816 68.0707 75.8033 68.1463 75.8706L68.6326 76.3038H68.1912C68.0856 76.3038 68 76.3894 68 76.4951C68 76.6007 68.0856 76.6863 68.1912 76.6863H68.6437L68.1463 77.1294C68.0707 77.1967 68.0567 77.3184 68.115 77.4013C68.1732 77.4841 68.2818 77.4966 68.3574 77.4292L69.1915 76.6863H69.5037L69.0063 77.1294C68.9307 77.1967 68.9167 77.3184 68.975 77.4013C69.0332 77.4841 69.1418 77.4966 69.2174 77.4292L70.0515 76.6863H71.5878L70.491 77.9202L69.4437 78.0571C69.3505 78.0693 69.2836 78.1642 69.2945 78.2691C69.3053 78.374 69.3897 78.4492 69.483 78.437L70.1037 78.3559L69.8829 78.6043L68.8356 78.7412C68.7423 78.7534 68.6755 78.8483 68.6864 78.9533C68.6972 79.0582 68.7816 79.1333 68.8748 79.1211L69.4956 79.04L69.1685 79.408C69.1021 79.4827 69.1021 79.6038 69.1685 79.6785C69.2348 79.7532 69.3425 79.7532 69.4089 79.6785L69.7439 79.3016L69.6701 80.0158C69.6592 80.1207 69.7261 80.2156 69.8193 80.2278C69.9126 80.24 69.997 80.1648 70.0078 80.0599L70.1312 78.8659L70.352 78.6175L70.2782 79.3316C70.2674 79.4366 70.3342 79.5315 70.4274 79.5437C70.5207 79.5559 70.6051 79.4807 70.6159 79.3758L70.7393 78.1818L71.8256 76.9597V78.7046L71.1683 79.6385C71.1116 79.7191 71.1253 79.8376 71.1989 79.9032C71.2725 79.9687 71.3782 79.9565 71.4349 79.8759L71.8256 79.3208V79.6721L71.1683 80.606C71.1116 80.6866 71.1253 80.8051 71.1989 80.8707C71.2725 80.9362 71.3782 80.924 71.4349 80.8434L71.8256 80.2883V80.83C71.8256 80.9239 71.9017 81 71.9956 81C72.0895 81 72.1656 80.9239 72.1656 80.83V80.2758L72.5651 80.8434C72.6218 80.924 72.7275 80.9362 72.8011 80.8707C72.8747 80.8051 72.8884 80.6866 72.8317 80.606L72.1656 79.6596V79.3083L72.5651 79.8759C72.6218 79.9565 72.7275 79.9687 72.8011 79.9032C72.8747 79.8376 72.8884 79.7191 72.8317 79.6385L72.1656 78.6921V76.9498L73.2108 78.1256L73.3342 79.3197C73.345 79.4246 73.4294 79.4997 73.5227 79.4875C73.6159 79.4754 73.6827 79.3804 73.6719 79.2755L73.5981 78.5613L73.8189 78.8098L73.9423 80.0038C73.9531 80.1087 74.0375 80.1839 74.1308 80.1717C74.224 80.1595 74.2909 80.0645 74.28 79.9596L74.2062 79.2455L74.5911 79.6785C74.6575 79.7532 74.7652 79.7532 74.8316 79.6785C74.8979 79.6038 74.8979 79.4827 74.8316 79.408L74.4545 78.9838L75.0753 79.065C75.1685 79.0772 75.2529 79.002 75.2637 78.8971C75.2746 78.7922 75.2078 78.6972 75.1145 78.6851L74.0672 78.5481L73.8464 78.2997L74.4671 78.3809C74.5604 78.3931 74.6448 78.3179 74.6556 78.213C74.6665 78.1081 74.5997 78.0131 74.5064 78.0009L73.4591 77.864L72.4123 76.6863H73.878L74.712 77.4292C74.7876 77.4966 74.8962 77.4841 74.9545 77.4013C75.0127 77.3184 74.9987 77.1967 74.9231 77.1294L74.4257 76.6863H74.738L75.572 77.4292C75.6476 77.4966 75.7562 77.4841 75.8145 77.4013C75.8728 77.3184 75.8587 77.1967 75.7831 77.1294L75.2857 76.6863H75.8088C75.9144 76.6863 76 76.6007 76 76.4951C76 76.3894 75.9144 76.3038 75.8088 76.3038H75.2968L75.7831 75.8706C75.8587 75.8033 75.8727 75.6816 75.8145 75.5987C75.7562 75.5159 75.6476 75.5034 75.572 75.5708L74.7491 76.3038H74.4368L74.9231 75.8706C74.9987 75.8033 75.0127 75.6816 74.9545 75.5987C74.8962 75.5159 74.7876 75.5034 74.712 75.5708L73.8891 76.3038H72.4086L73.445 75.1378L74.5064 74.9991C74.5996 74.9869 74.6664 74.8919 74.6556 74.787C74.6448 74.6821 74.5604 74.6069 74.4671 74.6191L73.8323 74.7021L74.0531 74.4537L75.1145 74.3149C75.2077 74.3028 75.2746 74.2078 75.2637 74.1029C75.2529 73.998 75.1685 73.9228 75.0752 73.935L74.4404 74.018L74.8253 73.585C74.8917 73.5103 74.8917 73.3892 74.8253 73.3145C74.7589 73.2398 74.6513 73.2398 74.5849 73.3145L74.2079 73.7387L74.28 73.0404C74.2908 72.9355 74.224 72.8405 74.1308 72.8283C74.0375 72.8161 73.9531 72.8913 73.9423 72.9962L73.8257 74.1245L73.6485 73.9513L73.6719 73.7245C73.6827 73.6196 73.6159 73.5246 73.5227 73.5125C73.4388 73.5015 73.3622 73.5611 73.3396 73.6495L72.5482 72.8761L72.8317 72.4734C72.8884 72.3928 72.8747 72.2743 72.8011 72.2087C72.7275 72.1432 72.6218 72.1553 72.5651 72.236L72.2913 72.625L72.1656 72.5022V72.17C72.1656 72.0761 72.0895 72 71.9956 72ZM72.1656 72.503V72.5022L71.8256 72.17L72.1656 72.503ZM72.2909 72.6256L72.1656 72.503V72.8036L72.2909 72.6256ZM72.5476 72.877L72.5482 72.8761L72.2913 72.625L72.2909 72.6256L72.5476 72.877ZM72.5476 72.877L72.1656 73.4198V73.7711L72.5651 73.2035C72.6218 73.1228 72.7275 73.1106 72.8011 73.1762C72.8747 73.2418 72.8884 73.3603 72.8317 73.4409L72.1656 74.3873V76.0362L73.2125 74.8585L73.3342 73.6803C73.3352 73.6706 73.3368 73.6612 73.339 73.652L72.5476 72.877ZM73.8253 74.1283L73.8257 74.1245L73.8544 74.1525L73.8527 74.1551L73.8253 74.1283ZM73.8253 74.1283L73.8206 74.1744L73.5998 74.4228L73.6481 73.9547L73.8253 74.1283Z" fill="#D6E9FF"/>
<defs>
<filter id="filter0_f_964_267" x="0.621094" y="0.00463867" width="145.438" height="130.021" filterUnits="userSpaceOnUse" color-interpolation-filters="sRGB">
<feFlood flood-opacity="0" result="BackgroundImageFix"/>
<feBlend mode="normal" in="SourceGraphic" in2="BackgroundImageFix" result="shape"/>
<feGaussianBlur stdDeviation="22.5" result="effect1_foregroundBlur_964_267"/>
</filter>
<filter id="filter1_ii_964_267" x="32.5142" y="24.8905" width="77.3135" height="58.6125" filterUnits="userSpaceOnUse" color-interpolation-filters="sRGB">
<feFlood flood-opacity="0" result="BackgroundImageFix"/>
<feBlend mode="normal" in="SourceGraphic" in2="BackgroundImageFix" result="shape"/>
<feColorMatrix in="SourceAlpha" type="matrix" values="0 0 0 0 0 0 0 0 0 0 0 0 0 0 0 0 0 0 127 0" result="hardAlpha"/>
<feOffset dx="8" dy="-15"/>
<feGaussianBlur stdDeviation="15"/>
<feComposite in2="hardAlpha" operator="arithmetic" k2="-1" k3="1"/>
<feColorMatrix type="matrix" values="0 0 0 0 0 0 0 0 0 0 0 0 0 0 0 0 0 0 0.2 0"/>
<feBlend mode="normal" in2="shape" result="effect1_innerShadow_964_267"/>
<feColorMatrix in="SourceAlpha" type="matrix" values="0 0 0 0 0 0 0 0 0 0 0 0 0 0 0 0 0 0 127 0" result="hardAlpha"/>
<feOffset dx="-18" dy="11"/>
<feGaussianBlur stdDeviation="15"/>
<feComposite in2="hardAlpha" operator="arithmetic" k2="-1" k3="1"/>
<feColorMatrix type="matrix" values="0 0 0 0 1 0 0 0 0 1 0 0 0 0 1 0 0 0 1 0"/>
<feBlend mode="normal" in2="effect1_innerShadow_964_267" result="effect2_innerShadow_964_267"/>
</filter>
<linearGradient id="paint0_linear_964_267" x1="54.2004" y1="86.2531" x2="91.2354" y2="44.6903" gradientUnits="userSpaceOnUse">
<stop stop-color="#254659"/>
<stop offset="1" stop-color="#023553"/>
</linearGradient>
</defs>
</svg>
