<svg width="90" height="90" viewBox="0 0 90 90" fill="none" xmlns="http://www.w3.org/2000/svg">
<path fill-rule="evenodd" clip-rule="evenodd" d="M57.3708 34.4206C57.3708 33.6243 58.0142 32.9788 58.808 32.9788C62.4067 32.9788 65.3176 35.9121 65.3176 39.5227C65.3176 43.1333 62.4067 46.0666 58.808 46.0666H38.1209C37.3271 46.0666 36.6836 45.4211 36.6836 44.6247C36.6836 43.8284 37.3271 43.1829 38.1209 43.1829H58.808C60.8121 43.1829 62.4431 41.5477 62.4431 39.5227C62.4431 37.4977 60.8121 35.8625 58.808 35.8625C58.0142 35.8625 57.3708 35.217 57.3708 34.4206ZM26.623 51.0578C26.623 50.2614 27.2665 49.6159 28.0603 49.6159L56.3626 49.6159C57.1563 49.6159 57.7998 50.2614 57.7998 51.0578C57.7998 51.8541 57.1563 52.4996 56.3626 52.4996L28.0603 52.4996C27.2665 52.4996 26.623 51.8541 26.623 51.0578ZM59.5687 51.0578C59.5687 50.2614 60.2121 49.6159 61.0059 49.6159H67.197C67.9908 49.6159 68.6343 50.2614 68.6343 51.0578C68.6343 51.8541 67.9908 52.4996 67.197 52.4996H61.0059C60.2121 52.4996 59.5687 51.8541 59.5687 51.0578ZM28.8342 57.2689C28.8342 56.4726 29.4776 55.8271 30.2714 55.8271H36.4625C37.2563 55.8271 37.8997 56.4726 37.8997 57.2689C37.8997 58.0653 37.2563 58.7108 36.4625 58.7108H30.2714C29.4776 58.7108 28.8342 58.0653 28.8342 57.2689ZM39.8897 57.2689C39.8897 56.4726 40.5332 55.8271 41.327 55.8271H63.6778C67.2749 55.8271 70.182 58.7619 70.182 62.371C70.182 65.9801 67.2749 68.9149 63.6778 68.9149C62.884 68.9149 62.2406 68.2694 62.2406 67.473C62.2406 66.6767 62.884 66.0312 63.6778 66.0312C65.6775 66.0312 67.3076 64.3974 67.3076 62.371C67.3076 60.3446 65.6775 58.7108 63.6778 58.7108H41.327C40.5332 58.7108 39.8897 58.0653 39.8897 57.2689Z" fill="white"/>
<rect width="2.72185" height="7.41878" rx="1.36092" transform="matrix(0.967314 0.253582 -0.264149 0.964482 20.9595 31.6671)" fill="white"/>
<rect width="2.72185" height="7.41878" rx="1.36092" transform="matrix(0.967314 0.253582 -0.264149 0.964482 29.7925 31.6671)" fill="white"/>
<rect width="2.72185" height="7.41878" rx="1.36092" transform="matrix(0.967314 0.253582 -0.264149 0.964482 38.625 31.6671)" fill="white"/>
<rect width="2.72185" height="7.41878" rx="1.36092" transform="matrix(0.967314 0.253582 -0.264149 0.964482 47.4575 31.6671)" fill="white"/>
<rect width="2.72185" height="7.41878" rx="1.36092" transform="matrix(0.967314 0.253582 -0.264149 0.964482 25.8052 21)" fill="white"/>
<rect width="2.72185" height="7.41878" rx="1.36092" transform="matrix(0.967314 0.253582 -0.264149 0.964482 34.6382 21)" fill="white"/>
<rect width="2.72185" height="7.41878" rx="1.36092" transform="matrix(0.967314 0.253582 -0.264149 0.964482 43.4707 21)" fill="white"/>
<rect width="2.72185" height="7.41878" rx="1.36092" transform="matrix(0.967314 0.253582 -0.264149 0.964482 52.3032 21)" fill="white"/>
</svg>
